<?xml version="1.0" encoding="UTF-8" standalone="no"?>
<svg
   xmlns:dc="http://purl.org/dc/elements/1.1/"
   xmlns:cc="http://creativecommons.org/ns#"
   xmlns:rdf="http://www.w3.org/1999/02/22-rdf-syntax-ns#"
   xmlns:svg="http://www.w3.org/2000/svg"
   xmlns="http://www.w3.org/2000/svg"
   viewBox="0 0 228.75 76.25"
   height="76.25"
   width="228.75"
   xml:space="preserve"
   version="1.1"
   id="svg2"><metadata
     id="metadata8"><rdf:RDF><cc:Work
         rdf:about=""><dc:format>image/svg+xml</dc:format><dc:type
           rdf:resource="http://purl.org/dc/dcmitype/StillImage" /><dc:title></dc:title></cc:Work></rdf:RDF></metadata><defs
     id="defs6"><clipPath
       id="clipPath18"
       clipPathUnits="userSpaceOnUse"><path
         id="path20"
         d="m 0,0 1824.18,0 0,603.887 L 0,603.887 0,0 Z" /></clipPath></defs><g
     transform="matrix(1.25,0,0,-1.25,0,76.25)"
     id="g10"><g
       transform="scale(0.1,0.1)"
       id="g12"><g
         id="g14"><g
           clip-path="url(#clipPath18)"
           id="g16"><path
             id="path22"
             style="fill:#1e5cb3;fill-opacity:1;fill-rule:nonzero;stroke:none"
             d="m 386.813,362.297 -24.899,0 0,-20.902 20.402,0 0,-7.793 -20.402,0 0,-32.301 -9.703,0 0,68.894 35.906,0 -1.304,-7.898" /><path
             id="path24"
             style="fill:#1e5cb3;fill-opacity:1;fill-rule:nonzero;stroke:none"
             d="m 397.012,307.195 c -5,5.305 -7.301,11.797 -7.301,20.5 0,16.809 9.199,27 24.305,27 8.496,0 14.597,-2.8 18.996,-8.203 3.801,-4.394 5.699,-10.594 5.699,-18.992 0,-8.508 -1.699,-14.504 -5.398,-19.004 -4.403,-5.5 -10,-8.098 -18.7,-8.098 -7.898,0 -13.203,2.102 -17.601,6.797 z M 426.41,315 c 1.301,3.203 1.699,6.395 1.699,11.797 0,6.504 -0.695,10.703 -2.296,14.004 -2.399,4.695 -6.399,6.601 -12,6.601 -4.797,0 -8.899,-2.097 -11,-5.507 -1.899,-3.094 -2.7,-7.391 -2.7,-13.594 0,-7 1.2,-12.199 3.301,-15.801 1.899,-3.301 5.899,-5.098 11.199,-5.098 5.899,0 9.899,2.395 11.797,7.598" /><path
             id="path26"
             style="fill:#1e5cb3;fill-opacity:1;fill-rule:nonzero;stroke:none"
             d="m 481.113,301.301 -15,26.297 c -3.101,5.207 -6.601,12.597 -7,13.601 0.2,-2.703 0.496,-8.105 0.598,-14.707 l 0.402,-25.191 -9.3,0 0,52.594 10.597,0 15.301,-26.493 c 3.098,-5.398 5.598,-10.8 6.301,-12.207 -0.102,1.2 -0.801,7.899 -0.903,14.102 l -0.296,24.598 9,0 0,-52.594 -9.7,0" /><path
             id="path28"
             style="fill:#1e5cb3;fill-opacity:1;fill-rule:nonzero;stroke:none"
             d="m 532.406,352.098 c 7.805,-2.403 15.106,-8.895 15.106,-24.5 0,-17.004 -10.602,-24.2 -17.102,-25.594 -2.301,-0.609 -5.504,-0.703 -9.398,-0.703 l -15.305,0 0,52.594 11.805,0 c 5.496,0 10.597,0 14.894,-1.797 z m 0.907,-10.496 c -3.102,3.703 -6.602,4.793 -12.004,4.793 l -6.2,0 0,-37.5 7.297,0 c 1.707,0 3.606,0.207 5,0.609 5.602,1.394 9.801,6.297 9.801,17.391 0,6.906 -1.098,11.406 -3.894,14.707" /><path
             id="path30"
             style="fill:#1e5cb3;fill-opacity:1;fill-rule:nonzero;stroke:none"
             d="m 586.809,303.301 c -3.801,-2.102 -8.496,-3.106 -13.899,-3.106 -6.703,0 -13.5,1.602 -19.402,4.707 l 3.601,7.293 c 5.5,-2.898 10.5,-4.297 16.301,-4.297 3.5,0 5.801,0.5 7.899,1.7 2.5,1.398 3.902,3.398 3.902,5.996 0,3.801 -2.699,6.203 -9.301,7.902 l -7.5,1.902 c -4.801,1.301 -8.504,3.594 -10.601,6.797 -1.5,2.2 -2.301,4.602 -2.301,7.309 0,9.297 8.301,15.801 20,15.801 6.801,0 14.199,-2.004 18.902,-5.207 l -4.301,-6.7 c -4.699,2.801 -9.5,4.2 -14.199,4.2 -6.101,0 -10.203,-2.598 -10.203,-6.797 0,-3.301 2.301,-5.098 8.301,-6.809 l 7.199,-1.797 c 4.102,-1.093 8.203,-2.898 10.602,-5.398 2.402,-2.402 3.8,-5.899 3.8,-9.5 0,-5.805 -3.3,-11.098 -8.8,-13.996" /><path
             id="path32"
             style="fill:#1e5cb3;fill-opacity:1;fill-rule:nonzero;stroke:none"
             d="m 654.805,301.301 -15,26.297 c -3.094,5.207 -6.598,12.597 -6.996,13.601 0.199,-2.703 0.496,-8.105 0.601,-14.707 l 0.399,-25.191 -9.301,0 0,52.594 10.601,0 15.297,-26.493 c 3.102,-5.398 5.602,-10.8 6.305,-12.207 -0.106,1.2 -0.801,7.899 -0.906,14.102 l -0.297,24.598 9,0 0,-52.594 -9.703,0" /><path
             id="path34"
             style="fill:#1e5cb3;fill-opacity:1;fill-rule:nonzero;stroke:none"
             d="m 711.305,301.301 -5,13.699 -19.7,0 -5,-13.699 -9.699,0 19.598,52.691 10.902,0 19.199,-52.691 -10.3,0 z m -14.7,44.195 c -0.3,-1.394 -7.199,-21.601 -7.601,-22.996 l 15.101,0 c -0.597,1.797 -7.199,21.602 -7.5,22.996" /><path
             id="path36"
             style="fill:#1e5cb3;fill-opacity:1;fill-rule:nonzero;stroke:none"
             d="m 762.707,346.199 -15.203,0 0,-44.898 -9.301,0 0,44.898 -15,0 0,7.696 40.801,0 -1.297,-7.696" /><path
             id="path38"
             style="fill:#1e5cb3;fill-opacity:1;fill-rule:nonzero;stroke:none"
             d="m 772.102,301.301 9.5,0 0,52.5938 -9.5,0 0,-52.5938 z" /><path
             id="path40"
             style="fill:#1e5cb3;fill-opacity:1;fill-rule:nonzero;stroke:none"
             d="m 800.801,307.195 c -5,5.305 -7.293,11.797 -7.293,20.5 0,16.809 9.199,27 24.297,27 8.496,0 14.597,-2.8 19.004,-8.203 3.796,-4.394 5.691,-10.594 5.691,-18.992 0,-8.508 -1.699,-14.504 -5.398,-19.004 -4.395,-5.5 -10,-8.098 -18.704,-8.098 -7.898,0 -13.191,2.102 -17.597,6.797 z M 830.207,315 c 1.297,3.203 1.699,6.395 1.699,11.797 0,6.504 -0.703,10.703 -2.304,14.004 -2.395,4.695 -6.399,6.601 -11.993,6.601 -4.804,0 -8.906,-2.097 -11.007,-5.507 -1.895,-3.094 -2.696,-7.391 -2.696,-13.594 0,-7 1.203,-12.199 3.301,-15.801 1.895,-3.301 5.898,-5.098 11.191,-5.098 5.911,0 9.903,2.395 11.809,7.598" /><path
             id="path42"
             style="fill:#1e5cb3;fill-opacity:1;fill-rule:nonzero;stroke:none"
             d="m 884.902,301.301 -15,26.297 c -3.105,5.207 -6.601,12.597 -7,13.601 0.203,-2.703 0.496,-8.105 0.606,-14.707 l 0.39,-25.191 -9.296,0 0,52.594 10.605,0 15.293,-26.493 c 3.105,-5.398 5.605,-10.8 6.297,-12.207 -0.098,1.2 -0.789,7.899 -0.899,14.102 l -0.293,24.598 8.997,0 0,-52.594 -9.7,0" /><path
             id="path44"
             style="fill:#1e5cb3;fill-opacity:1;fill-rule:nonzero;stroke:none"
             d="m 941.398,301.301 -5,13.699 -19.699,0 -5,-13.699 -9.695,0 19.598,52.691 10.898,0 19.199,-52.691 -10.301,0 z m -14.699,44.195 c -0.301,-1.394 -7.195,-21.601 -7.597,-22.996 l 15.097,0 c -0.594,1.797 -7.195,21.602 -7.5,22.996" /><path
             id="path46"
             style="fill:#1e5cb3;fill-opacity:1;fill-rule:nonzero;stroke:none"
             d="m 988.996,301.301 -30.195,0 0,52.594 9.5,0 0,-44.903 22.199,0 -1.504,-7.691" /><path
             id="path48"
             style="fill:#1e5cb3;fill-opacity:1;fill-rule:nonzero;stroke:none"
             d="m 1045,303.301 c -3.79,-2.102 -8.5,-3.106 -13.9,-3.106 -6.7,0 -13.5,1.602 -19.4,4.707 l 3.6,7.293 c 5.51,-2.898 10.51,-4.297 16.31,-4.297 3.49,0 5.8,0.5 7.9,1.7 2.5,1.398 3.89,3.398 3.89,5.996 0,3.801 -2.7,6.203 -9.29,7.902 l -7.5,1.902 c -4.81,1.301 -8.51,3.594 -10.61,6.797 -1.49,2.2 -2.29,4.602 -2.29,7.309 0,9.297 8.3,15.801 20,15.801 6.79,0 14.2,-2.004 18.89,-5.207 l -4.29,-6.7 c -4.71,2.801 -9.51,4.2 -14.2,4.2 -6.11,0 -10.21,-2.598 -10.21,-6.797 0,-3.301 2.31,-5.098 8.3,-6.809 l 7.2,-1.797 c 4.1,-1.093 8.2,-2.898 10.6,-5.398 2.4,-2.402 3.8,-5.899 3.8,-9.5 0,-5.805 -3.3,-11.098 -8.8,-13.996" /><path
             id="path50"
             style="fill:#1e5cb3;fill-opacity:1;fill-rule:nonzero;stroke:none"
             d="m 1101.1,305.398 c -3.5,-3.3 -8.4,-5 -15.69,-5 -10.11,0 -15.71,3.704 -18.31,8.301 -1.6,3 -2.1,5.196 -2.1,11.098 l 0,34.098 9.4,0 0,-32.293 c 0,-3.797 0.2,-6.602 0.8,-8 1.41,-3.407 5.21,-5.399 10.3,-5.399 4.1,0 7.2,1.192 8.8,3.289 1.51,2.004 2,3.813 2,8.906 l 0,33.497 9.51,0 0,-33.895 c 0,-8.398 -1.11,-11.301 -4.71,-14.602" /><path
             id="path52"
             style="fill:#1e5cb3;fill-opacity:1;fill-rule:nonzero;stroke:none"
             d="m 1120.5,301.301 9.5,0 0,52.5938 -9.5,0 0,-52.5938 z" /><path
             id="path54"
             style="fill:#1e5cb3;fill-opacity:1;fill-rule:nonzero;stroke:none"
             d="m 1173.3,303.301 c -3.8,-2.102 -8.5,-3.106 -13.9,-3.106 -6.7,0 -13.5,1.602 -19.4,4.707 l 3.6,7.293 c 5.5,-2.898 10.5,-4.297 16.3,-4.297 3.5,0 5.8,0.5 7.9,1.7 2.5,1.398 3.9,3.398 3.9,5.996 0,3.801 -2.7,6.203 -9.3,7.902 l -7.5,1.902 c -4.8,1.301 -8.5,3.594 -10.6,6.797 -1.5,2.2 -2.3,4.602 -2.3,7.309 0,9.297 8.3,15.801 20,15.801 6.8,0 14.2,-2.004 18.9,-5.207 l -4.3,-6.7 c -4.7,2.801 -9.5,4.2 -14.2,4.2 -6.1,0 -10.2,-2.598 -10.2,-6.797 0,-3.301 2.3,-5.098 8.3,-6.809 l 7.2,-1.797 c 4.1,-1.093 8.2,-2.898 10.6,-5.398 2.4,-2.402 3.8,-5.899 3.8,-9.5 0,-5.805 -3.3,-11.098 -8.8,-13.996" /><path
             id="path56"
             style="fill:#1e5cb3;fill-opacity:1;fill-rule:nonzero;stroke:none"
             d="m 1221.9,303.301 c -3.8,-2.102 -8.5,-3.106 -13.9,-3.106 -6.7,0 -13.5,1.602 -19.4,4.707 l 3.6,7.293 c 5.5,-2.898 10.5,-4.297 16.3,-4.297 3.5,0 5.8,0.5 7.9,1.7 2.5,1.398 3.9,3.398 3.9,5.996 0,3.801 -2.7,6.203 -9.3,7.902 l -7.5,1.902 c -4.8,1.301 -8.5,3.594 -10.6,6.797 -1.5,2.2 -2.3,4.602 -2.3,7.309 0,9.297 8.3,15.801 20,15.801 6.8,0 14.2,-2.004 18.9,-5.207 l -4.3,-6.7 c -4.7,2.801 -9.5,4.2 -14.2,4.2 -6.1,0 -10.2,-2.598 -10.2,-6.797 0,-3.301 2.3,-5.098 8.3,-6.809 l 7.2,-1.797 c 4.1,-1.093 8.2,-2.898 10.6,-5.398 2.4,-2.402 3.8,-5.899 3.8,-9.5 0,-5.805 -3.3,-11.098 -8.8,-13.996" /><path
             id="path58"
             style="fill:#1e5cb3;fill-opacity:1;fill-rule:nonzero;stroke:none"
             d="m 1242.2,301.301 0,52.594 33,0 -1.3,-7.696 -22.3,0 0,-13.601 18.6,0 0,-7.696 -18.51,0 0,-15.605 24.31,0 0,-7.996 -33.8,0" /><path
             id="path60"
             style="fill:#1e5cb3;fill-opacity:1;fill-rule:nonzero;stroke:none"
             d="m 368.91,200 c -7.898,0 -15.496,2.004 -22.195,6.102 l 3.797,7.394 c 6.004,-3.699 11.699,-5.691 18.601,-5.691 9.004,0 14.903,4.597 14.903,11.992 0,5.601 -3.703,9.5 -11.403,11.695 l -7.199,2.11 c -10.398,3 -16.301,8 -16.301,17.793 0,11.906 9.2,20 22.801,20 7.598,0 15,-2.196 21.098,-6.493 l -4.301,-6.808 c -6.395,3.91 -10.699,5.402 -16.395,5.402 -7.703,0 -12.5,-3.992 -12.5,-10.402 0,-4.891 2.797,-7.696 10.2,-9.891 l 8.101,-2.402 c 9.199,-2.707 16.797,-8.703 16.797,-19.406 0,-9.598 -7.902,-21.395 -26.004,-21.395" /><path
             id="path62"
             style="fill:#1e5cb3;fill-opacity:1;fill-rule:nonzero;stroke:none"
             d="m 429.816,200.496 c -7.203,0 -13.203,2.199 -17.703,6.508 -5,4.793 -7.699,11.695 -7.699,19.891 0,6.406 1.598,11.906 4.496,16.406 4.504,7.195 12.301,11.601 21.301,11.601 5.504,0 11.305,-1.601 14.801,-4.199 l -4.602,-6.308 c -3.199,2 -6.394,3.007 -10.097,3.007 -5.497,0 -10.399,-2.707 -12.899,-7.402 -1.805,-2.996 -2.598,-6.906 -2.598,-12.5 0,-7.402 1.098,-11.199 4.2,-14.695 2.996,-3.41 6.898,-5.11 11.699,-5.11 4.101,0 7.5,1.2 10.898,3.301 l 4.5,-5.801 c -4,-3.097 -9.8,-4.699 -16.297,-4.699" /><path
             id="path64"
             style="fill:#1e5cb3;fill-opacity:1;fill-rule:nonzero;stroke:none"
             d="m 486.313,201.301 0,24.004 -21,0 0,-24.004 -9.399,0 0,52.594 9.399,0 0,-20.899 21,0 0,20.899 9.402,0 0,-52.594 -9.402,0" /><path
             id="path66"
             style="fill:#1e5cb3;fill-opacity:1;fill-rule:nonzero;stroke:none"
             d="m 561.613,200.996 -11.004,0 -5.898,22.996 c -2,7.707 -3.203,14.903 -3.402,16.906 -0.297,-2.097 -1.598,-9.503 -3.297,-16.503 l -5.703,-23.399 -11.2,0 -14.097,52.899 10,0 6.097,-23.192 c 2.102,-8.008 3.102,-14.707 3.504,-18.008 0.399,3.203 1.602,9.805 3.598,17.5 l 6.098,23.7 10.402,0 6.398,-25.293 c 1.602,-6.305 2.801,-12.801 3.2,-15.508 0.304,2.402 1.703,10.109 3.5,17.304 l 6.004,23.497 9.699,0 -13.899,-52.899" /><path
             id="path68"
             style="fill:#1e5cb3;fill-opacity:1;fill-rule:nonzero;stroke:none"
             d="m 585.012,201.301 0,52.594 32.996,0 -1.297,-7.696 -22.301,0 0,-13.601 18.598,0 0,-7.696 -18.5,0 0,-15.605 24.301,0 0,-7.996 -33.797,0" /><path
             id="path70"
             style="fill:#1e5cb3;fill-opacity:1;fill-rule:nonzero;stroke:none"
             d="m 633.41,201.301 9.5,0 0,52.5938 -9.5,0 0,-52.5938 z" /><path
             id="path72"
             style="fill:#1e5cb3;fill-opacity:1;fill-rule:nonzero;stroke:none"
             d="m 692.711,201.301 -35.703,0 0,6.695 23.5,33.801 c 1.402,1.902 2.601,3.699 3.5,4.598 -1.199,-0.094 -3.098,-0.094 -5.899,-0.094 l -20.199,0 2.301,7.594 34.496,0 0,-7 -23.199,-33.899 c -1.297,-1.797 -2.5,-3.398 -3.301,-4.297 1.301,0.102 3.301,0.196 5.305,0.196 l 21.699,0 -2.5,-7.594" /><path
             id="path74"
             style="fill:#1e5cb3;fill-opacity:1;fill-rule:nonzero;stroke:none"
             d="m 708.207,201.301 0,52.594 33,0 -1.301,-7.696 -22.297,0 0,-13.601 18.598,0 0,-7.696 -18.5,0 0,-15.605 24.301,0 0,-7.996 -33.801,0" /><path
             id="path76"
             style="fill:#1e5cb3;fill-opacity:1;fill-rule:nonzero;stroke:none"
             d="m 785.305,201.301 c -1.496,2.594 -3.196,5.191 -5,8.094 -4.492,7.207 -7.2,10.507 -9.797,12.5 -1.504,1.308 -2.801,1.707 -4.598,1.906 l 0,-22.5 -9.305,0 0,52.594 15.7,0 c 7.902,0 12.004,-0.899 15.097,-3.192 3.703,-2.707 6.008,-6.902 6.008,-11.808 0,-8.7 -5.703,-14.297 -14.601,-14.696 0.898,-0.597 1.894,-1.504 2.597,-2.402 1.699,-2.102 4.699,-5.996 7.5,-9.699 3,-4.293 7.598,-10.496 7.805,-10.797 l -11.406,0 z m -19.395,45.094 0,-15.997 5.098,0 c 5.203,0 7.996,0.598 10,2.102 1.699,1.301 2.703,3.398 2.703,6.199 0,3.305 -1.902,5.899 -5.106,6.895 -1.796,0.605 -3.898,0.801 -6.894,0.801 l -5.801,0" /><path
             id="path78"
             style="fill:#1e5cb3;fill-opacity:1;fill-rule:nonzero;stroke:none"
             d="m 809.211,201.301 9.49219,0 0,52.5938 -9.49219,0 0,-52.5938 z" /><path
             id="path80"
             style="fill:#1e5cb3;fill-opacity:1;fill-rule:nonzero;stroke:none"
             d="m 864.309,203.301 c -3.801,-2.102 -8.508,-3.106 -13.899,-3.106 -6.707,0 -13.504,1.602 -19.402,4.707 l 3.601,7.293 c 5.5,-2.898 10.5,-4.297 16.301,-4.297 3.496,0 5.801,0.5 7.899,1.7 2.5,1.398 3.898,3.398 3.898,5.996 0,3.801 -2.695,6.203 -9.297,7.902 l -7.5,1.902 c -4.805,1.301 -8.508,3.594 -10.605,6.797 -1.496,2.2 -2.297,4.602 -2.297,7.309 0,9.297 8.301,15.801 20,15.801 6.797,0 14.199,-2.004 18.898,-5.207 l -4.297,-6.7 c -4.699,2.801 -9.504,4.2 -14.199,4.2 -6.105,0 -10.207,-2.598 -10.207,-6.797 0,-3.301 2.305,-5.098 8.301,-6.809 l 7.199,-1.797 c 4.102,-1.093 8.203,-2.898 10.606,-5.398 2.402,-2.402 3.796,-5.899 3.796,-9.5 0,-5.805 -3.3,-11.098 -8.796,-13.996" /><path
             id="path82"
             style="fill:#1e5cb3;fill-opacity:1;fill-rule:nonzero;stroke:none"
             d="m 924.707,205.195 -4.5,5.801 c -3.398,-2.101 -6.797,-3.301 -10.898,-3.301 -4.805,0 -8.704,1.7 -11.7,5.11 -3.105,3.496 -4.199,7.293 -4.199,14.695 0,5.594 0.801,9.504 2.598,12.5 2.5,4.695 7.402,7.402 12.898,7.402 3.703,0 6.895,-1.007 10.098,-3.007 l 4.601,6.308 c -3.496,2.598 -9.296,4.199 -14.796,4.199 -9.004,0 -16.805,-4.406 -21.309,-11.601 -2.891,-4.5 -4.492,-10 -4.492,-16.406 0,-8.196 2.695,-15.098 7.695,-19.891 4.504,-4.309 10.5,-6.508 17.707,-6.508 6.492,0 12.293,1.602 16.297,4.699" /><path
             id="path84"
             style="fill:#1e5cb3;fill-opacity:1;fill-rule:nonzero;stroke:none"
             d="m 964.902,201.301 0,24.004 -20.996,0 0,-24.004 -9.402,0 0,52.594 9.402,0 0,-20.899 20.996,0 0,20.899 9.407,0 0,-52.594 -9.407,0" /><path
             id="path86"
             style="fill:#1e5cb3;fill-opacity:1;fill-rule:nonzero;stroke:none"
             d="m 991.301,201.301 0,52.594 33.009,0 -1.3,-7.696 -22.3,0 0,-13.601 18.6,0 0,-7.696 -18.5,0 0,-15.605 24.3,0 0,-7.996 -33.809,0" /><path
             id="path88"
             style="fill:#1e5cb3;fill-opacity:1;fill-rule:nonzero;stroke:none"
             d="m 1068.41,201.301 c -1.5,2.594 -3.2,5.191 -5,8.094 -4.5,7.207 -7.2,10.507 -9.8,12.5 -1.51,1.308 -2.8,1.707 -4.6,1.906 l 0,-22.5 -9.3,0 0,52.594 15.7,0 c 7.9,0 12,-0.899 15.1,-3.192 3.69,-2.707 6,-6.902 6,-11.808 0,-8.7 -5.7,-14.297 -14.6,-14.696 0.9,-0.597 1.89,-1.504 2.6,-2.402 1.7,-2.102 4.69,-5.996 7.5,-9.699 2.99,-4.293 7.59,-10.496 7.8,-10.797 l -11.4,0 z m -19.4,45.094 0,-15.997 5.1,0 c 5.2,0 7.99,0.598 10,2.102 1.7,1.301 2.7,3.398 2.7,6.199 0,3.305 -1.9,5.899 -5.11,6.895 -1.79,0.605 -3.89,0.801 -6.89,0.801 l -5.8,0" /><path
             id="path90"
             style="fill:#1e5cb3;fill-opacity:1;fill-rule:nonzero;stroke:none"
             d="m 1161.91,201.301 -18.11,36.597 c -3.49,7.102 -7.1,14.907 -8.39,18.899 l -0.6,-0.098 c 0.5,-5.898 0.69,-12.804 0.8,-19.199 l 0.4,-36.199 -9.71,0 0,68.894 11.2,0 19.2,-38 c 2.9,-5.703 6.3,-14.597 6.81,-16.492 l 0.6,0.195 c -0.21,2 -1,12.903 -1,20.497 l -0.2,33.8 9.29,0 0,-68.894 -10.29,0" /><path
             id="path92"
             style="fill:#1e5cb3;fill-opacity:1;fill-rule:nonzero;stroke:none"
             d="m 1221.3,201.301 -5,13.699 -19.69,0 -5,-13.699 -9.7,0 19.6,52.691 10.9,0 19.2,-52.691 -10.31,0 z m -14.69,44.195 c -0.31,-1.394 -7.2,-21.601 -7.6,-22.996 l 15.1,0 c -0.61,1.797 -7.2,21.602 -7.5,22.996" /><path
             id="path94"
             style="fill:#1e5cb3;fill-opacity:1;fill-rule:nonzero;stroke:none"
             d="m 1272.01,246.199 -15.21,0 0,-44.898 -9.3,0 0,44.898 -15,0 0,7.696 40.81,0 -1.3,-7.696" /><path
             id="path96"
             style="fill:#1e5cb3;fill-opacity:1;fill-rule:nonzero;stroke:none"
             d="m 1283.71,201.301 9.5,0 0,52.5938 -9.5,0 0,-52.5938 z" /><path
             id="path98"
             style="fill:#1e5cb3;fill-opacity:1;fill-rule:nonzero;stroke:none"
             d="m 1314.7,207.195 c -5,5.305 -7.29,11.797 -7.29,20.5 0,16.809 9.2,27 24.29,27 8.5,0 14.6,-2.8 19,-8.203 3.81,-4.394 5.7,-10.594 5.7,-18.992 0,-8.508 -1.7,-14.504 -5.4,-19.004 -4.39,-5.5 -10,-8.098 -18.7,-8.098 -7.9,0 -13.19,2.102 -17.6,6.797 z m 29.41,7.805 c 1.3,3.203 1.7,6.395 1.7,11.797 0,6.504 -0.71,10.703 -2.31,14.004 -2.4,4.695 -6.4,6.601 -12,6.601 -4.8,0 -8.9,-2.097 -11,-5.507 -1.9,-3.094 -2.69,-7.391 -2.69,-13.594 0,-7 1.19,-12.199 3.29,-15.801 1.9,-3.301 5.91,-5.098 11.2,-5.098 5.9,0 9.9,2.395 11.81,7.598" /><path
             id="path100"
             style="fill:#1e5cb3;fill-opacity:1;fill-rule:nonzero;stroke:none"
             d="m 1401.1,201.301 -15,26.297 c -3.1,5.207 -6.6,12.597 -6.99,13.601 0.19,-2.703 0.49,-8.105 0.59,-14.707 l 0.4,-25.191 -9.29,0 0,52.594 10.59,0 15.3,-26.493 c 3.1,-5.398 5.6,-10.8 6.3,-12.207 -0.09,1.2 -0.8,7.899 -0.9,14.102 l -0.3,24.598 9.01,0 0,-52.594 -9.71,0" /><path
             id="path102"
             style="fill:#1e5cb3;fill-opacity:1;fill-rule:nonzero;stroke:none"
             d="m 1459.9,201.301 -5,13.699 -19.7,0 -5,-13.699 -9.7,0 19.6,52.691 10.9,0 19.2,-52.691 -10.3,0 z m -14.7,44.195 c -0.3,-1.394 -7.2,-21.601 -7.6,-22.996 l 15.1,0 c -0.6,1.797 -7.2,21.602 -7.5,22.996" /><path
             id="path104"
             style="fill:#1e5cb3;fill-opacity:1;fill-rule:nonzero;stroke:none"
             d="m 1509.8,201.301 -30.21,0 0,52.594 9.51,0 0,-44.903 22.2,0 -1.5,-7.691" /><path
             id="path106"
             style="fill:#1e5cb3;fill-opacity:1;fill-rule:nonzero;stroke:none"
             d="m 1550.8,246.395 -20.9,0 0,-13.7 17.1,0 0,-7.597 -17.1,0 0,-23.797 -9.3,0 0,52.594 31.4,0 -1.2,-7.5" /><path
             id="path108"
             style="fill:#1e5cb3;fill-opacity:1;fill-rule:nonzero;stroke:none"
             d="m 1567.6,207.195 c -5,5.305 -7.3,11.797 -7.3,20.5 0,16.809 9.2,27 24.29,27 8.51,0 14.6,-2.8 19.01,-8.203 3.8,-4.394 5.7,-10.594 5.7,-18.992 0,-8.508 -1.7,-14.504 -5.4,-19.004 -4.4,-5.5 -10,-8.098 -18.7,-8.098 -7.9,0 -13.2,2.102 -17.6,6.797 z M 1597,215 c 1.3,3.203 1.7,6.395 1.7,11.797 0,6.504 -0.7,10.703 -2.3,14.004 -2.4,4.695 -6.4,6.601 -12,6.601 -4.81,0 -8.9,-2.097 -11.01,-5.507 -1.89,-3.094 -2.69,-7.391 -2.69,-13.594 0,-7 1.2,-12.199 3.3,-15.801 1.89,-3.301 5.9,-5.098 11.2,-5.098 5.9,0 9.9,2.395 11.8,7.598" /><path
             id="path110"
             style="fill:#1e5cb3;fill-opacity:1;fill-rule:nonzero;stroke:none"
             d="m 1654,201.301 -15,26.297 c -3.11,5.207 -6.6,12.597 -7,13.601 0.19,-2.703 0.5,-8.105 0.59,-14.707 l 0.4,-25.191 -9.29,0 0,52.594 10.6,0 15.29,-26.493 c 3.11,-5.398 5.61,-10.8 6.3,-12.207 -0.09,1.2 -0.8,7.899 -0.89,14.102 l -0.31,24.598 9.01,0 0,-52.594 -9.7,0" /><path
             id="path112"
             style="fill:#1e5cb3;fill-opacity:1;fill-rule:nonzero;stroke:none"
             d="m 1707.59,252.098 c 7.81,-2.403 15.11,-8.895 15.11,-24.5 0,-17.004 -10.61,-24.2 -17.1,-25.594 -2.3,-0.609 -5.51,-0.703 -9.4,-0.703 l -15.31,0 0,52.594 11.81,0 c 5.5,0 10.6,0 14.89,-1.797 z m 0.9,-10.496 c -3.09,3.703 -6.59,4.793 -11.99,4.793 l -6.2,0 0,-37.5 7.29,0 c 1.7,0 3.61,0.207 5,0.609 5.61,1.394 9.81,6.297 9.81,17.391 0,6.906 -1.11,11.406 -3.91,14.707" /><path
             id="path114"
             style="fill:#1e5cb3;fill-opacity:1;fill-rule:nonzero;stroke:none"
             d="m 1765.3,203.301 c -3.8,-2.102 -8.51,-3.106 -13.91,-3.106 -6.7,0 -13.49,1.602 -19.39,4.707 l 3.59,7.293 c 5.51,-2.898 10.51,-4.297 16.3,-4.297 3.51,0 5.8,0.5 7.9,1.7 2.5,1.398 3.91,3.398 3.91,5.996 0,3.801 -2.71,6.203 -9.31,7.902 l -7.5,1.902 c -4.8,1.301 -8.5,3.594 -10.6,6.797 -1.5,2.2 -2.29,4.602 -2.29,7.309 0,9.297 8.29,15.801 20,15.801 6.8,0 14.2,-2.004 18.9,-5.207 l -4.3,-6.7 c -4.71,2.801 -9.5,4.2 -14.21,4.2 -6.09,0 -10.2,-2.598 -10.2,-6.797 0,-3.301 2.31,-5.098 8.31,-6.809 l 7.19,-1.797 c 4.1,-1.093 8.21,-2.898 10.61,-5.398 2.39,-2.402 3.8,-5.899 3.8,-9.5 0,-5.805 -3.3,-11.098 -8.8,-13.996" /><path
             id="path116"
             style="fill:#1e5cb3;fill-opacity:1;fill-rule:nonzero;stroke:none"
             d="m 386.813,162.297 -24.899,0 0,-20.902 20.402,0 0,-7.793 -20.402,0 0,-32.301 -9.703,0 0,68.894 35.906,0 -1.304,-7.898" /><path
             id="path118"
             style="fill:#1e5cb3;fill-opacity:1;fill-rule:nonzero;stroke:none"
             d="m 397.012,107.195 c -5,5.305 -7.301,11.797 -7.301,20.5 0,16.809 9.199,27 24.305,27 8.496,0 14.597,-2.8 18.996,-8.203 3.801,-4.394 5.699,-10.594 5.699,-18.992 0,-8.508 -1.699,-14.504 -5.398,-19.004 -4.403,-5.5 -10,-8.098 -18.7,-8.098 -7.898,0 -13.203,2.102 -17.601,6.797 z M 426.41,115 c 1.301,3.203 1.699,6.395 1.699,11.797 0,6.504 -0.695,10.703 -2.296,14.004 -2.399,4.695 -6.399,6.601 -12,6.601 -4.797,0 -8.899,-2.097 -11,-5.507 -1.899,-3.094 -2.7,-7.391 -2.7,-13.594 0,-7 1.2,-12.199 3.301,-15.801 1.899,-3.301 5.899,-5.098 11.199,-5.098 5.899,0 9.899,2.395 11.797,7.598" /><path
             id="path120"
             style="fill:#1e5cb3;fill-opacity:1;fill-rule:nonzero;stroke:none"
             d="m 481.113,101.301 -15,26.297 c -3.101,5.207 -6.601,12.597 -7,13.601 0.2,-2.703 0.496,-8.105 0.598,-14.707 l 0.402,-25.191 -9.3,0 0,52.594 10.597,0 15.301,-26.493 c 3.098,-5.398 5.598,-10.8 6.301,-12.207 -0.102,1.2 -0.801,7.899 -0.903,14.102 l -0.296,24.598 9,0 0,-52.594 -9.7,0" /><path
             id="path122"
             style="fill:#1e5cb3;fill-opacity:1;fill-rule:nonzero;stroke:none"
             d="m 532.406,152.098 c 7.805,-2.403 15.106,-8.895 15.106,-24.5 0,-17.004 -10.602,-24.2 -17.102,-25.594 -2.301,-0.609 -5.504,-0.703 -9.398,-0.703 l -15.305,0 0,52.594 11.805,0 c 5.496,0 10.597,0 14.894,-1.797 z m 0.907,-10.496 c -3.102,3.703 -6.602,4.793 -12.004,4.793 l -6.2,0 0,-37.5 7.297,0 c 1.707,0 3.606,0.207 5,0.609 5.602,1.394 9.801,6.297 9.801,17.391 0,6.906 -1.098,11.406 -3.894,14.707" /><path
             id="path124"
             style="fill:#1e5cb3;fill-opacity:1;fill-rule:nonzero;stroke:none"
             d="m 563.707,107.195 c -5,5.305 -7.301,11.797 -7.301,20.5 0,16.809 9.203,27 24.301,27 8.504,0 14.602,-2.8 19,-8.203 3.801,-4.394 5.703,-10.594 5.703,-18.992 0,-8.508 -1.703,-14.504 -5.398,-19.004 -4.403,-5.5 -10,-8.098 -18.703,-8.098 -7.899,0 -13.2,2.102 -17.602,6.797 z M 593.109,115 c 1.301,3.203 1.7,6.395 1.7,11.797 0,6.504 -0.704,10.703 -2.297,14.004 -2.403,4.695 -6.403,6.601 -12.004,6.601 -4.801,0 -8.903,-2.097 -11,-5.507 -1.899,-3.094 -2.699,-7.391 -2.699,-13.594 0,-7 1.199,-12.199 3.3,-15.801 1.899,-3.301 5.899,-5.098 11.2,-5.098 5.898,0 9.898,2.395 11.8,7.598" /><path
             id="path126"
             style="fill:#1e5cb3;fill-opacity:1;fill-rule:nonzero;stroke:none"
             d="m 663.508,101.301 -15,26.297 c -3.102,5.207 -6.602,12.597 -7.004,13.601 0.199,-2.703 0.504,-8.105 0.601,-14.707 l 0.399,-25.191 -9.297,0 0,52.594 10.598,0 15.3,-26.493 c 3.102,-5.398 5.602,-10.8 6.301,-12.207 -0.097,1.2 -0.801,7.899 -0.898,14.102 l -0.305,24.598 9.004,0 0,-52.594 -9.699,0" /><path
             id="path128"
             style="fill:#1e5cb3;fill-opacity:1;fill-rule:nonzero;stroke:none"
             d="m 720.004,101.301 -5,13.699 -19.699,0 -5,-13.699 -9.7,0 19.602,52.691 10.898,0 19.2,-52.691 -10.301,0 z m -14.699,44.195 c -0.301,-1.394 -7.2,-21.601 -7.598,-22.996 l 15.098,0 c -0.598,1.797 -7.2,21.602 -7.5,22.996" /><path
             id="path130"
             style="fill:#1e5cb3;fill-opacity:1;fill-rule:nonzero;stroke:none"
             d="m 769.902,101.301 -35.699,0 0,6.695 23.504,33.801 c 1.395,1.902 2.598,3.699 3.496,4.598 -1.203,-0.094 -3.098,-0.094 -5.898,-0.094 l -20.203,0 2.3,7.594 34.504,0 0,-7 -23.199,-33.899 c -1.305,-1.797 -2.5,-3.398 -3.301,-4.297 1.297,0.102 3.301,0.196 5.297,0.196 l 21.699,0 -2.5,-7.594" /><path
             id="path132"
             style="fill:#1e5cb3;fill-opacity:1;fill-rule:nonzero;stroke:none"
             d="m 783.301,101.301 9.50391,0 0,52.5938 -9.50391,0 0,-52.5938 z" /><path
             id="path134"
             style="fill:#1e5cb3;fill-opacity:1;fill-rule:nonzero;stroke:none"
             d="m 812.004,107.195 c -5,5.305 -7.305,11.797 -7.305,20.5 0,16.809 9.207,27 24.305,27 8.496,0 14.601,-2.8 18.996,-8.203 3.797,-4.394 5.703,-10.594 5.703,-18.992 0,-8.508 -1.699,-14.504 -5.402,-19.004 -4.395,-5.5 -10,-8.098 -18.699,-8.098 -7.903,0 -13.196,2.102 -17.598,6.797 z M 841.406,115 c 1.301,3.203 1.699,6.395 1.699,11.797 0,6.504 -0.703,10.703 -2.304,14.004 -2.403,4.695 -6.395,6.601 -12,6.601 -4.797,0 -8.899,-2.097 -10.996,-5.507 -1.907,-3.094 -2.707,-7.391 -2.707,-13.594 0,-7 1.203,-12.199 3.3,-15.801 1.907,-3.301 5.899,-5.098 11.204,-5.098 5.898,0 9.902,2.395 11.804,7.598" /><path
             id="path136"
             style="fill:#1e5cb3;fill-opacity:1;fill-rule:nonzero;stroke:none"
             d="m 896.105,101.301 -15,26.297 c -3.105,5.207 -6.601,12.597 -7.003,13.601 0.195,-2.703 0.5,-8.105 0.597,-14.707 l 0.399,-25.191 -9.297,0 0,52.594 10.597,0 15.301,-26.493 c 3.106,-5.398 5.606,-10.8 6.301,-12.207 -0.098,1.2 -0.801,7.899 -0.898,14.102 l -0.305,24.598 9.004,0 0,-52.594 -9.696,0" /><path
             id="path138"
             style="fill:#1e5cb3;fill-opacity:1;fill-rule:nonzero;stroke:none"
             d="m 952.598,101.301 -5,13.699 -19.696,0 -5,-13.699 -9.699,0 19.602,52.691 10.898,0 19.199,-52.691 -10.304,0 z m -14.696,44.195 c -0.304,-1.394 -7.199,-21.601 -7.597,-22.996 l 15.097,0 c -0.605,1.797 -7.199,21.602 -7.5,22.996" /><path
             id="path140"
             style="fill:#1e5cb3;fill-opacity:1;fill-rule:nonzero;stroke:none"
             d="m 1000.2,101.301 -30.2,0 0,52.594 9.504,0 0,-44.903 22.196,0 -1.5,-7.691" /><path
             id="path142"
             style="fill:#1e5cb3;fill-opacity:1;fill-rule:nonzero;stroke:none"
             d="m 1008.71,101.301 0,52.594 32.99,0 -1.29,-7.696 -22.31,0 0,-13.601 18.6,0 0,-7.696 -18.5,0 0,-15.605 24.3,0 0,-7.996 -33.79,0" /><path
             id="path144"
             style="fill:#1e5cb3;fill-opacity:1;fill-rule:nonzero;stroke:none"
             d="m 1098.6,103.301 c -3.8,-2.102 -8.5,-3.106 -13.9,-3.106 -6.7,0 -13.49,1.602 -19.4,4.707 l 3.6,7.293 c 5.5,-2.898 10.5,-4.297 16.3,-4.297 3.51,0 5.8,0.5 7.9,1.7 2.5,1.398 3.9,3.398 3.9,5.996 0,3.801 -2.7,6.203 -9.3,7.902 l -7.5,1.902 c -4.79,1.301 -8.5,3.594 -10.6,6.797 -1.5,2.2 -2.3,4.602 -2.3,7.309 0,9.297 8.3,15.801 20,15.801 6.8,0 14.2,-2.004 18.91,-5.207 l -4.31,-6.7 c -4.7,2.801 -9.5,4.2 -14.2,4.2 -6.1,0 -10.2,-2.598 -10.2,-6.797 0,-3.301 2.3,-5.098 8.31,-6.809 l 7.19,-1.797 c 4.1,-1.093 8.21,-2.898 10.6,-5.398 2.4,-2.402 3.8,-5.899 3.8,-9.5 0,-5.805 -3.3,-11.098 -8.8,-13.996" /><path
             id="path146"
             style="fill:#1e5cb3;fill-opacity:1;fill-rule:nonzero;stroke:none"
             d="m 1140.8,101.102 -8.7,0 -20,52.793 10.2,0 10.7,-27.899 c 2,-5.098 3.5,-10.898 3.7,-11.699 0.2,0.898 1.6,6.406 3.6,11.406 l 11.3,28.192 9.7,0 -20.5,-52.793" /><path
             id="path148"
             style="fill:#1e5cb3;fill-opacity:1;fill-rule:nonzero;stroke:none"
             d="m 1169.3,101.301 9.5,0 0,52.5938 -9.5,0 0,-52.5938 z" /><path
             id="path150"
             style="fill:#1e5cb3;fill-opacity:1;fill-rule:nonzero;stroke:none"
             d="m 1226.3,101.301 -35.7,0 0,6.695 23.5,33.801 c 1.4,1.902 2.6,3.699 3.5,4.598 -1.2,-0.094 -3.1,-0.094 -5.9,-0.094 l -20.2,0 2.3,7.594 34.5,0 0,-7 -23.2,-33.899 c -1.3,-1.797 -2.5,-3.398 -3.3,-4.297 1.3,0.102 3.3,0.196 5.3,0.196 l 21.7,0 -2.5,-7.594" /><path
             id="path152"
             style="fill:#1e5cb3;fill-opacity:1;fill-rule:nonzero;stroke:none"
             d="m 1272,101.301 -35.71,0 0,6.695 23.51,33.801 c 1.4,1.902 2.6,3.699 3.5,4.598 -1.21,-0.094 -3.1,-0.094 -5.9,-0.094 l -20.2,0 2.3,7.594 34.5,0 0,-7 -23.2,-33.899 c -1.3,-1.797 -2.5,-3.398 -3.3,-4.297 1.29,0.102 3.3,0.196 5.3,0.196 l 21.7,0 -2.5,-7.594" /><path
             id="path154"
             style="fill:#1e5cb3;fill-opacity:1;fill-rule:nonzero;stroke:none"
             d="m 1285.2,101.301 0,52.594 33,0 -1.3,-7.696 -22.31,0 0,-13.601 18.61,0 0,-7.696 -18.51,0 0,-15.605 24.31,0 0,-7.996 -33.8,0" /><path
             id="path156"
             style="fill:#1e5cb3;fill-opacity:1;fill-rule:nonzero;stroke:none"
             d="m 1360,101.301 c -1.5,2.594 -3.21,5.191 -5,8.094 -4.51,7.207 -7.2,10.507 -9.8,12.5 -1.5,1.308 -2.8,1.707 -4.6,1.906 l 0,-22.5 -9.31,0 0,52.594 15.71,0 c 7.9,0 12,-0.899 15.09,-3.192 3.71,-2.707 6.01,-6.902 6.01,-11.808 0,-8.7 -5.7,-14.297 -14.6,-14.696 0.9,-0.597 1.9,-1.504 2.6,-2.402 1.7,-2.102 4.7,-5.996 7.5,-9.699 3,-4.293 7.6,-10.496 7.8,-10.797 l -11.4,0 z m -19.4,45.094 0,-15.997 5.1,0 c 5.19,0 8,0.598 10,2.102 1.7,1.301 2.69,3.398 2.69,6.199 0,3.305 -1.89,5.899 -5.09,6.895 -1.8,0.605 -3.9,0.801 -6.9,0.801 l -5.8,0" /><path
             id="path158"
             style="fill:#1e5cb3;fill-opacity:1;fill-rule:nonzero;stroke:none"
             d="m 1384.59,107.195 c -5,5.305 -7.29,11.797 -7.29,20.5 0,16.809 9.2,27 24.3,27 8.49,0 14.6,-2.8 19,-8.203 3.8,-4.394 5.69,-10.594 5.69,-18.992 0,-8.508 -1.7,-14.504 -5.4,-19.004 -4.39,-5.5 -10,-8.098 -18.7,-8.098 -7.9,0 -13.19,2.102 -17.6,6.797 z M 1414,115 c 1.3,3.203 1.7,6.395 1.7,11.797 0,6.504 -0.7,10.703 -2.31,14.004 -2.4,4.695 -6.39,6.601 -12,6.601 -4.79,0 -8.89,-2.097 -10.99,-5.507 -1.91,-3.094 -2.7,-7.391 -2.7,-13.594 0,-7 1.19,-12.199 3.29,-15.801 1.91,-3.301 5.91,-5.098 11.2,-5.098 5.91,0 9.9,2.395 11.81,7.598" /><path
             id="path160"
             style="fill:#1e5cb3;fill-opacity:1;fill-rule:nonzero;stroke:none"
             d="m 368.91,0 c -7.898,0 -15.496,2.00391 -22.195,6.10156 l 3.797,7.39454 c 6.004,-3.69922 11.699,-5.69141 18.601,-5.69141 9.004,0 14.903,4.59761 14.903,11.99221 0,5.6015 -3.703,9.5 -11.403,11.6953 l -7.199,2.1094 c -10.398,3 -16.301,8 -16.301,17.7929 0,11.9063 9.2,20 22.801,20 7.598,0 15,-2.1953 21.098,-6.4922 l -4.301,-6.8085 c -6.395,3.9101 -10.699,5.4023 -16.395,5.4023 -7.703,0 -12.5,-3.9922 -12.5,-10.4023 0,-4.8907 2.797,-7.6954 10.2,-9.8907 l 8.101,-2.4023 c 9.199,-2.707 16.797,-8.7031 16.797,-19.4063 C 394.914,11.7969 387.012,0 368.91,0" /><path
             id="path162"
             style="fill:#1e5cb3;fill-opacity:1;fill-rule:nonzero;stroke:none"
             d="m 454.711,0.996094 -11,0 -5.898,22.996106 c -2,7.707 -3.2,14.9023 -3.399,16.9062 -0.301,-2.0976 -1.601,-9.5039 -3.301,-16.5039 l -5.703,-23.398406 -11.195,0 -14.102,52.898406 10,0 6.098,-23.1914 c 2.102,-8.0078 3.102,-14.707 3.5,-18.0078 0.402,3.2031 1.602,9.8047 3.602,17.5 l 6.101,23.6992 10.402,0 6.395,-25.2929 c 1.602,-6.3047 2.805,-12.8008 3.203,-15.5078 0.297,2.4023 1.699,10.1093 3.496,17.3046 l 6,23.4961 9.703,0 -13.902,-52.898406" /><path
             id="path164"
             style="fill:#1e5cb3;fill-opacity:1;fill-rule:nonzero;stroke:none"
             d="m 477.813,1.30078 9.49609,0 0,52.5938 -9.49609,0 0,-52.5938 z" /><path
             id="path166"
             style="fill:#1e5cb3;fill-opacity:1;fill-rule:nonzero;stroke:none"
             d="m 530.41,3.30078 c -3.797,-2.10156 -8.5,-3.105467 -13.902,-3.105467 -6.699,0 -13.5,1.601567 -19.399,4.707027 l 3.598,7.29296 c 5.504,-2.89842 10.504,-4.29686 16.305,-4.29686 3.496,0 5.801,0.5 7.902,1.69922 2.5,1.39844 3.895,3.39844 3.895,5.99614 0,3.8007 -2.7,6.2031 -9.297,7.9023 l -7.5,1.9023 c -4.801,1.3008 -8.5,3.5938 -10.602,6.7969 -1.496,2.1992 -2.297,4.6016 -2.297,7.3086 0,9.2969 8.301,15.8008 20,15.8008 6.797,0 14.2,-2.0039 18.895,-5.207 l -4.297,-6.6993 c -4.703,2.8008 -9.5,4.1993 -14.199,4.1993 -6.102,0 -10.199,-2.5977 -10.199,-6.7969 0,-3.3008 2.3,-5.0977 8.3,-6.8086 l 7.196,-1.7969 c 4.101,-1.0937 8.199,-2.8984 10.601,-5.3984 2.399,-2.4024 3.801,-5.8985 3.801,-9.5 0,-5.8047 -3.301,-11.09768 -8.801,-13.99612" /><path
             id="path168"
             style="fill:#1e5cb3;fill-opacity:1;fill-rule:nonzero;stroke:none"
             d="m 578.809,3.30078 c -3.797,-2.10156 -8.5,-3.105467 -13.903,-3.105467 -6.699,0 -13.496,1.601567 -19.398,4.707027 l 3.605,7.29296 c 5.496,-2.89842 10.496,-4.29686 16.297,-4.29686 3.5,0 5.801,0.5 7.903,1.69922 2.5,1.39844 3.894,3.39844 3.894,5.99614 0,3.8007 -2.699,6.2031 -9.297,7.9023 l -7.5,1.9023 c -4.801,1.3008 -8.5,3.5938 -10.601,6.7969 -1.496,2.1992 -2.297,4.6016 -2.297,7.3086 0,9.2969 8.301,15.8008 20,15.8008 6.801,0 14.199,-2.0039 18.898,-5.207 l -4.301,-6.6993 c -4.703,2.8008 -9.5,4.1993 -14.199,4.1993 -6.097,0 -10.199,-2.5977 -10.199,-6.7969 0,-3.3008 2.301,-5.0977 8.301,-6.8086 l 7.195,-1.7969 c 4.102,-1.0937 8.203,-2.8984 10.602,-5.3984 2.402,-2.4024 3.8,-5.8985 3.8,-9.5 0,-5.8047 -3.296,-11.09768 -8.8,-13.99612" /><path
             id="path170"
             style="fill:#1e5cb3;fill-opacity:1;fill-rule:nonzero;stroke:none"
             d="M 654.211,1.30078 636.109,37.8984 c -3.5,7.1016 -7.101,14.9063 -8.398,18.8985 l -0.602,-0.0977 c 0.5,-5.8984 0.7,-12.8047 0.797,-19.1992 l 0.399,-36.19922 -9.696,0 0,68.89452 11.2,0 19.199,-38 c 2.902,-5.7031 6.301,-14.5976 6.797,-16.4922 l 0.601,0.1953 c -0.199,2 -1,12.9024 -1,20.4961 l -0.199,33.8008 9.301,0 0,-68.89452 -10.297,0" /><path
             id="path172"
             style="fill:#1e5cb3;fill-opacity:1;fill-rule:nonzero;stroke:none"
             d="m 711.109,1.30078 -5,13.69922 -19.703,0 -5,-13.69922 -9.695,0 19.598,52.69142 10.898,0 19.199,-52.69142 -10.297,0 z M 696.406,45.4961 C 696.109,44.1016 689.211,23.8945 688.809,22.5 l 15.097,0 c -0.601,1.7969 -7.195,21.6016 -7.5,22.9961" /><path
             id="path174"
             style="fill:#1e5cb3;fill-opacity:1;fill-rule:nonzero;stroke:none"
             d="m 760.305,46.1992 -15.196,0 0,-44.89842 -9.304,0 0,44.89842 -15,0 0,7.6953 40.797,0 -1.297,-7.6953" /><path
             id="path176"
             style="fill:#1e5cb3;fill-opacity:1;fill-rule:nonzero;stroke:none"
             d="m 769.504,1.30078 9.5,0 0,52.5938 -9.5,0 0,-52.5938 z" /><path
             id="path178"
             style="fill:#1e5cb3;fill-opacity:1;fill-rule:nonzero;stroke:none"
             d="m 798.008,7.19531 c -5,5.30469 -7.305,11.79689 -7.305,20.49999 0,16.8086 9.199,27 24.297,27 8.508,0 14.602,-2.8008 19.004,-8.2031 3.801,-4.3945 5.703,-10.5938 5.703,-18.9922 0,-8.5078 -1.699,-14.5039 -5.398,-19.00391 -4.407,-5.5 -10,-8.097652 -18.704,-8.097652 -7.898,0 -13.203,2.101562 -17.597,6.796872 z M 827.402,15 c 1.301,3.2031 1.7,6.3945 1.7,11.7969 0,6.5039 -0.692,10.7031 -2.293,14.0039 -2.403,4.6953 -6.407,6.6015 -12.004,6.6015 -4.805,0 -8.895,-2.0976 -10.996,-5.5078 -1.903,-3.0937 -2.704,-7.3906 -2.704,-13.5937 0,-7 1.2,-12.1992 3.301,-15.8008 1.903,-3.30078 5.899,-5.09766 11.199,-5.09766 5.899,0 9.903,2.39454 11.797,7.59766" /><path
             id="path180"
             style="fill:#1e5cb3;fill-opacity:1;fill-rule:nonzero;stroke:none"
             d="m 882.902,1.30078 -15,26.29692 c -3.097,5.207 -6.601,12.5976 -7.004,13.6015 0.207,-2.7031 0.508,-8.1054 0.606,-14.707 l 0.402,-25.19142 -9.297,0 0,52.59372 10.594,0 15.305,-26.4922 c 3.094,-5.3984 5.594,-10.8007 6.297,-12.207 -0.098,1.1992 -0.801,7.8985 -0.899,14.1016 l -0.301,24.5976 9.004,0 0,-52.59372 -9.707,0" /><path
             id="path182"
             style="fill:#1e5cb3;fill-opacity:1;fill-rule:nonzero;stroke:none"
             d="M 939.699,1.30078 934.699,15 915,15 910,1.30078 l -9.695,0 19.597,52.69142 10.899,0 L 950,1.30078 l -10.301,0 z M 925,45.4961 C 924.699,44.1016 917.805,23.8945 917.402,22.5 l 15.098,0 c -0.594,1.7969 -7.195,21.6016 -7.5,22.9961" /><path
             id="path184"
             style="fill:#1e5cb3;fill-opacity:1;fill-rule:nonzero;stroke:none"
             d="m 987.102,1.30078 -30.196,0 0,52.59372 9.492,0 0,-44.90231 22.207,0 -1.503,-7.69141" /><path
             id="path186"
             style="fill:#1e5cb3;fill-opacity:1;fill-rule:nonzero;stroke:none"
             d="m 1031.8,0 c -7.9,0 -15.5,2.00391 -22.2,6.10156 l 3.8,7.39454 c 6,-3.69922 11.7,-5.69141 18.61,-5.69141 8.99,0 14.89,4.59761 14.89,11.99221 0,5.6015 -3.69,9.5 -11.4,11.6953 l -7.19,2.1094 c -10.4,3 -16.3,8 -16.3,17.7929 0,11.9063 9.2,20 22.79,20 7.61,0 15,-2.1953 21.1,-6.4922 l -4.29,-6.8085 c -6.41,3.9101 -10.71,5.4023 -16.41,5.4023 -7.7,0 -12.5,-3.9922 -12.5,-10.4023 0,-4.8907 2.8,-7.6954 10.21,-9.8907 l 8.09,-2.4023 c 9.2,-2.707 16.81,-8.7031 16.81,-19.4063 C 1057.81,11.7969 1049.91,0 1031.8,0" /><path
             id="path188"
             style="fill:#1e5cb3;fill-opacity:1;fill-rule:nonzero;stroke:none"
             d="m 1090.2,0.496094 c -7.2,0 -13.19,2.199216 -17.7,6.507816 -5,4.79299 -7.7,11.69529 -7.7,19.89059 0,6.4063 1.6,11.9063 4.5,16.4063 4.5,7.1953 12.31,11.6015 21.3,11.6015 5.5,0 11.3,-1.6015 14.81,-4.1992 l -4.6,-6.3086 c -3.21,2 -6.41,3.0078 -10.11,3.0078 -5.5,0 -10.39,-2.707 -12.89,-7.4023 -1.81,-2.9961 -2.61,-6.9062 -2.61,-12.5 0,-7.4023 1.1,-11.1992 4.2,-14.6953 3.01,-3.41017 6.9,-5.10939 11.7,-5.10939 4.1,0 7.5,1.19922 10.91,3.30079 l 4.49,-5.80079 c -4,-3.09765 -9.8,-4.699216 -16.3,-4.699216" /><path
             id="path190"
             style="fill:#1e5cb3;fill-opacity:1;fill-rule:nonzero;stroke:none"
             d="m 1114.3,1.30078 9.5,0 0,52.5938 -9.5,0 0,-52.5938 z" /><path
             id="path192"
             style="fill:#1e5cb3;fill-opacity:1;fill-rule:nonzero;stroke:none"
             d="m 1138.6,1.30078 0,52.59372 33.01,0 -1.31,-7.6953 -22.3,0 0,-13.6015 18.61,0 0,-7.6954 -18.51,0 0,-15.60542 24.3,0 0,-7.9961 -33.8,0" /><path
             id="path194"
             style="fill:#1e5cb3;fill-opacity:1;fill-rule:nonzero;stroke:none"
             d="m 1214.8,1.30078 -15,26.29692 c -3.1,5.207 -6.6,12.5976 -7,13.6015 0.2,-2.7031 0.51,-8.1054 0.6,-14.707 l 0.4,-25.19142 -9.3,0 0,52.59372 10.6,0 15.31,-26.4922 c 3.09,-5.3984 5.59,-10.8007 6.29,-12.207 -0.09,1.1992 -0.8,7.8985 -0.89,14.1016 l -0.31,24.5976 9,0 0,-52.59372 -9.7,0" /><path
             id="path196"
             style="fill:#1e5cb3;fill-opacity:1;fill-rule:nonzero;stroke:none"
             d="m 1260.8,0.496094 c -7.2,0 -13.2,2.199216 -17.7,6.507816 -5,4.79299 -7.69,11.69529 -7.69,19.89059 0,6.4063 1.59,11.9063 4.49,16.4063 4.5,7.1953 12.3,11.6015 21.3,11.6015 5.5,0 11.3,-1.6015 14.8,-4.1992 l -4.6,-6.3086 c -3.2,2 -6.4,3.0078 -10.1,3.0078 -5.5,0 -10.4,-2.707 -12.9,-7.4023 -1.8,-2.9961 -2.6,-6.9062 -2.6,-12.5 0,-7.4023 1.1,-11.1992 4.2,-14.6953 3,-3.41017 6.9,-5.10939 11.7,-5.10939 4.1,0 7.5,1.19922 10.9,3.30079 l 4.5,-5.80079 c -4,-3.09765 -9.8,-4.699216 -16.3,-4.699216" /><path
             id="path198"
             style="fill:#1e5cb3;fill-opacity:1;fill-rule:nonzero;stroke:none"
             d="m 1284.7,1.30078 0,52.59372 33,0 -1.3,-7.6953 -22.3,0 0,-13.6015 18.6,0 0,-7.6954 -18.5,0 0,-15.60542 24.3,0 0,-7.9961 -33.8,0" /><path
             id="path200"
             style="fill:#1e5cb3;fill-opacity:1;fill-rule:nonzero;stroke:none"
             d="m 1382.7,62.2969 -24.9,0 0,-20.9024 20.4,0 0,-7.7929 -20.4,0 0,-32.30082 -9.7,0 0,68.89452 35.9,0 -1.3,-7.8984" /><path
             id="path202"
             style="fill:#1e5cb3;fill-opacity:1;fill-rule:nonzero;stroke:none"
             d="m 1393.2,7.19531 c -5,5.30469 -7.31,11.79689 -7.31,20.49999 0,16.8086 9.21,27 24.31,27 8.5,0 14.6,-2.8008 18.99,-8.2031 3.81,-4.3945 5.71,-10.5938 5.71,-18.9922 0,-8.5078 -1.7,-14.5039 -5.4,-19.00391 -4.4,-5.5 -10,-8.097652 -18.7,-8.097652 -7.9,0 -13.2,2.101562 -17.6,6.796872 z M 1422.6,15 c 1.3,3.2031 1.7,6.3945 1.7,11.7969 0,6.5039 -0.7,10.7031 -2.3,14.0039 -2.41,4.6953 -6.4,6.6015 -12,6.6015 -4.8,0 -8.9,-2.0976 -11,-5.5078 -1.91,-3.0937 -2.71,-7.3906 -2.71,-13.5937 0,-7 1.21,-12.1992 3.3,-15.8008 1.91,-3.30078 5.91,-5.09766 11.21,-5.09766 5.89,0 9.9,2.39454 11.8,7.59766" /><path
             id="path204"
             style="fill:#1e5cb3;fill-opacity:1;fill-rule:nonzero;stroke:none"
             d="m 1482.4,5.39844 c -3.5,-3.30078 -8.4,-5.000002 -15.71,-5.000002 -10.09,0 -15.69,3.703122 -18.3,8.300782 -1.6,2.99998 -2.1,5.19528 -2.1,11.09768 l 0,34.0976 9.41,0 0,-32.2929 c 0,-3.7969 0.19,-6.6016 0.8,-8 1.4,-3.4063 5.19,-5.39847 10.29,-5.39847 4.1,0 7.21,1.1914 8.81,3.28907 1.49,2.0039 1.99,3.8125 1.99,8.9062 l 0,33.4961 9.5,0 0,-33.8945 c 0,-8.3984 -1.09,-11.30078 -4.69,-14.60156" /><path
             id="path206"
             style="fill:#1e5cb3;fill-opacity:1;fill-rule:nonzero;stroke:none"
             d="m 1531.9,1.30078 -15,26.29692 c -3.11,5.207 -6.6,12.5976 -7,13.6015 0.19,-2.7031 0.5,-8.1054 0.59,-14.707 l 0.4,-25.19142 -9.29,0 0,52.59372 10.59,0 15.31,-26.4922 c 3.09,-5.3984 5.59,-10.8007 6.29,-12.207 -0.09,1.1992 -0.8,7.8985 -0.89,14.1016 l -0.31,24.5976 9.01,0 0,-52.59372 -9.7,0" /><path
             id="path208"
             style="fill:#1e5cb3;fill-opacity:1;fill-rule:nonzero;stroke:none"
             d="m 1582.99,52.0977 c 7.81,-2.4024 15.1,-8.8946 15.1,-24.5 0,-17.0039 -10.59,-24.19926 -17.1,-25.59379 -2.29,-0.60938 -5.5,-0.70313 -9.39,-0.70313 l -15.31,0 0,52.59372 11.8,0 c 5.51,0 10.61,0 14.9,-1.7968 z m 0.9,-10.4961 c -3.09,3.7031 -6.6,4.7929 -12,4.7929 l -6.19,0 0,-37.49997 7.29,0 c 1.7,0 3.61,0.20703 5,0.60938 5.61,1.39449 9.81,6.29689 9.81,17.39059 0,6.9063 -1.11,11.4063 -3.91,14.7071" /><path
             id="path210"
             style="fill:#1e5cb3;fill-opacity:1;fill-rule:nonzero;stroke:none"
             d="m 1641.69,1.30078 -5,13.69922 -19.69,0 -5,-13.69922 -9.71,0 19.6,52.69142 10.9,0 19.21,-52.69142 -10.31,0 z M 1627,45.4961 c -0.31,-1.3945 -7.21,-21.6016 -7.61,-22.9961 l 15.11,0 c -0.61,1.7969 -7.21,21.6016 -7.5,22.9961" /><path
             id="path212"
             style="fill:#1e5cb3;fill-opacity:1;fill-rule:nonzero;stroke:none"
             d="m 1690.89,46.1992 -15.2,0 0,-44.89842 -9.3,0 0,44.89842 -15,0 0,7.6953 40.8,0 -1.3,-7.6953" /><path
             id="path214"
             style="fill:#1e5cb3;fill-opacity:1;fill-rule:nonzero;stroke:none"
             d="m 1700.09,1.30078 9.5,0 0,52.5938 -9.5,0 0,-52.5938 z" /><path
             id="path216"
             style="fill:#1e5cb3;fill-opacity:1;fill-rule:nonzero;stroke:none"
             d="m 1730.59,7.19531 c -5,5.30469 -7.3,11.79689 -7.3,20.49999 0,16.8086 9.21,27 24.3,27 8.5,0 14.6,-2.8008 19,-8.2031 3.8,-4.3945 5.7,-10.5938 5.7,-18.9922 0,-8.5078 -1.7,-14.5039 -5.4,-19.00391 -4.39,-5.5 -10,-8.097652 -18.7,-8.097652 -7.9,0 -13.19,2.101562 -17.6,6.796872 z M 1760,15 c 1.29,3.2031 1.69,6.3945 1.69,11.7969 0,6.5039 -0.7,10.7031 -2.3,14.0039 -2.4,4.6953 -6.4,6.6015 -12,6.6015 -4.8,0 -8.9,-2.0976 -11,-5.5078 -1.9,-3.0937 -2.7,-7.3906 -2.7,-13.5937 0,-7 1.2,-12.1992 3.3,-15.8008 1.9,-3.30078 5.9,-5.09766 11.2,-5.09766 5.9,0 9.9,2.39454 11.81,7.59766" /><path
             id="path218"
             style="fill:#1e5cb3;fill-opacity:1;fill-rule:nonzero;stroke:none"
             d="m 1814.49,1.30078 -15,26.29692 c -3.1,5.207 -6.6,12.5976 -7,13.6015 0.2,-2.7031 0.5,-8.1054 0.6,-14.707 l 0.4,-25.19142 -9.31,0 0,52.59372 10.61,0 15.3,-26.4922 c 3.1,-5.3984 5.6,-10.8007 6.3,-12.207 -0.11,1.1992 -0.8,7.8985 -0.9,14.1016 l -0.3,24.5976 8.99,0 0,-52.59372 -9.69,0" /><path
             id="path220"
             style="fill:#ffffff;fill-opacity:1;fill-rule:evenodd;stroke:none"
             d="m 10.8828,422.922 680.32,0 0,170.082 -680.32,0 0,-170.082 z" /><path
             id="path222"
             style="fill:none;stroke:#ffffff;stroke-width:21.77000046;stroke-linecap:butt;stroke-linejoin:miter;stroke-miterlimit:4;stroke-dasharray:none;stroke-opacity:1"
             d="m 10.8828,422.922 680.32,0 0,170.082 -680.32,0 0,-170.082 z" /><path
             id="path224"
             style="fill:#1e5cb3;fill-opacity:1;fill-rule:evenodd;stroke:none"
             d="m 409.859,593.004 c 0.313,-0.176 0.664,-0.324 0.965,-0.5 l -20.105,-39.316 c -9.278,7.753 -21.145,12.929 -33.672,12.929 -9.414,0 -21.992,-5.429 -21.992,-16.308 0,-11.375 13.875,-15.77 22.781,-18.614 l 13.039,-3.886 c 27.059,-8.008 48.281,-22.063 48.281,-53.61 0,-17.754 -4.59,-37.715 -17.07,-50.742 l 289.117,0 0,170.047 -281.344,0" /><path
             id="path226"
             style="fill:#a7a5a6;fill-opacity:1;fill-rule:evenodd;stroke:none"
             d="m 274.707,423.27 21.68,42.992 c 12.636,-11.117 27.574,-20.16 44.957,-20.16 12.051,0 24.883,5.937 24.883,19.652 0,14.234 -20.157,19.137 -31.172,22.242 -31.696,9.043 -52.594,17.328 -52.594,55.094 0,21.23 8.144,38.449 21.66,49.914 l -293.2382,0 0,-170.047 264.2932,0 c -0.156,0.098 -0.321,0.195 -0.469,0.313" /><path
             id="path228"
             style="fill:#ffffff;fill-opacity:1;fill-rule:nonzero;stroke:none"
             d="m 74.6445,557.074 0,-35.527 43.8905,0 0,-14.402 -43.8905,0 0,-62.079 -15.7031,0 0,126.414 61.1096,0 0,-14.406 -45.4065,0" /><path
             id="path230"
             style="fill:none;stroke:#ffffff;stroke-width:3;stroke-linecap:butt;stroke-linejoin:miter;stroke-miterlimit:4;stroke-dasharray:none;stroke-opacity:1"
             d="m 74.6445,557.074 0,-35.527 43.8905,0 0,-14.402 -43.8905,0 0,-62.079 -15.7031,0 0,126.414 61.1096,0 0,-14.406 -45.4065,0 z" /><path
             id="path232"
             style="fill:#ffffff;fill-opacity:1;fill-rule:nonzero;stroke:none"
             d="m 146.711,577.516 94.812,-99.422 0,93.386 15.704,0 0,-131.609 -94.805,99.41 0,-94.215 -15.711,0 0,132.45" /><path
             id="path234"
             style="fill:none;stroke:#ffffff;stroke-width:3;stroke-linecap:butt;stroke-linejoin:miter;stroke-miterlimit:4;stroke-dasharray:none;stroke-opacity:1"
             d="m 146.711,577.516 94.812,-99.422 0,93.386 15.704,0 0,-131.609 -94.805,99.41 0,-94.215 -15.711,0 0,132.45 z" /><path
             id="path236"
             style="fill:#ffffff;fill-opacity:1;fill-rule:nonzero;stroke:none"
             d="m 445.375,577.516 94.801,-99.422 0,93.386 15.703,0 0,-131.609 -94.801,99.41 0,-94.215 -15.703,0 0,132.45" /><path
             id="path238"
             style="fill:none;stroke:#ffffff;stroke-width:3;stroke-linecap:butt;stroke-linejoin:miter;stroke-miterlimit:4;stroke-dasharray:none;stroke-opacity:1"
             d="m 445.375,577.516 94.801,-99.422 0,93.386 15.703,0 0,-131.609 -94.801,99.41 0,-94.215 -15.703,0 0,132.45 z" /><path
             id="path240"
             style="fill:#ffffff;fill-opacity:1;fill-rule:nonzero;stroke:none"
             d="m 603.574,557.074 0,-35.527 43.899,0 0,-14.402 -43.899,0 0,-62.079 -15.703,0 0,126.414 61.113,0 0,-14.406 -45.41,0" /><path
             id="path242"
             style="fill:none;stroke:#ffffff;stroke-width:3;stroke-linecap:butt;stroke-linejoin:miter;stroke-miterlimit:4;stroke-dasharray:none;stroke-opacity:1"
             d="m 603.574,557.074 0,-35.527 43.899,0 0,-14.402 -43.899,0 0,-62.079 -15.703,0 0,126.414 61.113,0 0,-14.406 -45.41,0 z" /></g></g></g></g></svg>