<?xml version="1.0" encoding="UTF-8" standalone="no"?>
<svg
   xmlns:dc="http://purl.org/dc/elements/1.1/"
   xmlns:cc="http://creativecommons.org/ns#"
   xmlns:rdf="http://www.w3.org/1999/02/22-rdf-syntax-ns#"
   xmlns:svg="http://www.w3.org/2000/svg"
   xmlns="http://www.w3.org/2000/svg"
   xmlns:sodipodi="http://sodipodi.sourceforge.net/DTD/sodipodi-0.dtd"
   xmlns:inkscape="http://www.inkscape.org/namespaces/inkscape"
   width="183.2972"
   height="66"
   viewBox="251.092 496.181 183.29719 66"
   enable-background="new 251.092 496.181 347.664 60"
   id="svg2"
   version="1.1"
   inkscape:version="0.91 r13725"
   sodipodi:docname="openconswiss.svg">
  <metadata
     id="metadata38">
    <rdf:RDF>
      <cc:Work
         rdf:about="">
        <dc:format>image/svg+xml</dc:format>
        <dc:type
           rdf:resource="http://purl.org/dc/dcmitype/StillImage" />
        <dc:title></dc:title>
      </cc:Work>
    </rdf:RDF>
  </metadata>
  <defs
     id="defs36" />
  <sodipodi:namedview
     pagecolor="#ffffff"
     bordercolor="#666666"
     borderopacity="1"
     objecttolerance="10"
     gridtolerance="10"
     guidetolerance="10"
     inkscape:pageopacity="0"
     inkscape:pageshadow="2"
     inkscape:window-width="1372"
     inkscape:window-height="901"
     id="namedview34"
     showgrid="false"
     inkscape:zoom="0.84564407"
     inkscape:cx="-94.599971"
     inkscape:cy="31.07167"
     inkscape:window-x="0"
     inkscape:window-y="0"
     inkscape:window-maximized="0"
     inkscape:current-layer="svg2"
     fit-margin-top="3"
     fit-margin-left="3"
     fit-margin-right="3"
     fit-margin-bottom="3" />
  <path
     id="path28-62"
     style="fill:#e83a2a;fill-opacity:1;fill-rule:nonzero;stroke:none"
     d="m 306.0146,508.71115 -5.80874,5.75443 c 3.54686,3.88116 5.71069,9.0454 5.71069,14.71615 0,5.70646 -2.19299,10.90029 -5.78,14.78821 l 5.82775,5.73626 c 5.03661,-5.36647 8.12789,-12.58191 8.12789,-20.52447 0,-7.91552 -3.07015,-15.11004 -8.07759,-20.47058"
     inkscape:connector-curvature="0" />
  <path
     id="path30-9"
     style="fill:#1d4354;fill-opacity:1;fill-rule:nonzero;stroke:none"
     d="m 284.0923,551.00492 c -12.05088,0 -21.82107,-9.77104 -21.82107,-21.82319 0,-12.05194 9.77019,-21.82319 21.82107,-21.82319 5.70224,0 10.89099,2.18919 14.7787,5.76965 l 5.82058,-5.74514 c -5.3745,-5.08098 -12.61995,-8.20205 -20.59928,-8.20205 -16.5666,0 -30.0003,13.43243 -30.0003,30.00073 0,16.57083 13.4337,29.99927 30.0003,29.99927 8.00068,0 15.26451,-3.13525 20.64259,-8.24032 l -5.84086,-5.72696 c -3.88918,3.59293 -9.08892,5.7912 -14.80173,5.7912"
     inkscape:connector-curvature="0" />
  <text
     xml:space="preserve"
     style="font-style:normal;font-variant:normal;font-weight:normal;font-stretch:normal;font-size:2.81788111px;line-height:125%;font-family:Roboto;-inkscape-font-specification:Roboto;text-align:start;letter-spacing:0px;word-spacing:0px;writing-mode:lr-tb;text-anchor:start;fill:#e63a29;fill-opacity:1;stroke:none;stroke-width:1px;stroke-linecap:butt;stroke-linejoin:miter;stroke-opacity:1"
     x="320.19955"
     y="552.82471"
     id="text4886"
     sodipodi:linespacing="125%"><tspan
       sodipodi:role="line"
       id="tspan4888"
       x="320.19955"
       y="552.82471"
       style="font-style:normal;font-variant:normal;font-weight:normal;font-stretch:normal;font-size:15.65489674px;font-family:'TeX Gyre Heros';-inkscape-font-specification:'TeX Gyre Heros';fill:#e63a29;fill-opacity:1">SWITZERLAND</tspan></text>
  <path
     id="path14"
     style="fill:#1d4354;fill-opacity:1;fill-rule:nonzero;stroke:none"
     d="m 330.49244,517.84861 c -3.27184,0 -5.55458,2.61207 -5.55458,5.83679 0,3.22387 2.32947,5.88375 5.60151,5.88375 3.27128,0 5.55474,-2.61208 5.55474,-5.83692 0,-3.22452 -2.33059,-5.88362 -5.60167,-5.88362 z m 0,14.38146 c -5.05991,0 -8.59053,-3.83776 -8.59053,-8.49784 0,-4.66005 3.57725,-8.54358 8.63746,-8.54358 5.0601,0 8.5909,3.837 8.5909,8.49675 0,4.66035 -3.57802,8.54467 -8.63783,8.54467"
     inkscape:connector-curvature="0" />
  <path
     id="path16"
     style="fill:#1d4354;fill-opacity:1;fill-rule:nonzero;stroke:none"
     d="m 347.63651,520.87106 -2.69367,0 0,4.74635 2.69367,0 c 1.75129,0 2.84379,-0.95981 2.84379,-2.37227 0,-1.56424 -1.11114,-2.37408 -2.84379,-2.37408 z m -0.0755,6.83743 -2.61815,0 0,4.23665 -2.31691,0 0,-13.18279 5.19887,0 c 3.06984,0 5.00992,1.73435 5.00992,4.42657 0,2.97526 -2.3733,4.51957 -5.27373,4.51957"
     inkscape:connector-curvature="0" />
  <path
     id="path18"
     style="fill:#1d4354;fill-opacity:1;fill-rule:nonzero;stroke:none"
     d="m 365.26218,520.83352 -7.45873,0 0,3.4291 6.61091,0 0,2.07146 -6.61091,0 0,3.54201 7.55263,0 0,2.06905 -9.86954,0 0,-13.18279 9.77564,0 0,2.07117"
     inkscape:connector-curvature="0" />
  <path
     id="path20"
     style="fill:#1d4354;fill-opacity:1;fill-rule:nonzero;stroke:none"
     d="m 377.59574,518.76235 2.27915,0 0,13.18279 -1.94032,0 -7.27044,-9.37815 0,9.37815 -2.2789,0 0,-13.18279 2.14798,0 7.06253,9.11585 0,-9.11585"
     inkscape:connector-curvature="0" />
  <path
     id="path22"
     style="fill:#1d4354;fill-opacity:1;fill-rule:nonzero;stroke:none"
     d="m 391.64233,532.23007 c -4.80102,0 -8.37862,-3.74285 -8.37862,-8.49784 0,-4.70658 3.5065,-8.54358 8.49631,-8.54358 3.03625,0 4.87164,1.05894 6.44885,2.56552 l -1.85966,2.14212 c -1.3183,-1.22414 -2.73003,-2.04768 -4.61322,-2.04768 -3.15296,0 -5.43652,2.58947 -5.43652,5.83679 0,3.24762 2.28356,5.88375 5.43652,5.88375 2.02417,0 3.31919,-0.82404 4.73091,-2.14185 l 1.86039,1.88442 c -1.71942,1.78881 -3.60187,2.91835 -6.68496,2.91835"
     inkscape:connector-curvature="0" />
  <path
     id="path24"
     style="fill:#1d4354;fill-opacity:1;fill-rule:nonzero;stroke:none"
     d="m 407.61871,520.6642 c -2.61725,0 -4.44479,2.09155 -4.44479,4.67155 0,2.57972 1.86505,4.7088 4.48353,4.7088 2.61822,0 4.4438,-2.09089 4.4438,-4.6703 0,-2.58249 -1.8648,-4.71005 -4.48254,-4.71005 z m 0,11.50821 c -4.04932,0 -6.87423,-3.06833 -6.87423,-6.79816 0,-3.73013 2.86218,-6.83773 6.91297,-6.83773 4.0476,0 6.87496,3.06987 6.87496,6.79923 0,3.72839 -2.86291,6.83666 -6.9137,6.83666"
     inkscape:connector-curvature="0" />
  <path
     id="path26-3"
     style="fill:#1d4354;fill-opacity:1;fill-rule:nonzero;stroke:none"
     d="m 426.86376,518.76235 2.27793,0 0,13.18279 -1.93763,0 -7.27117,-9.37815 0,9.37815 -2.27866,0 0,-13.18279 2.14676,0 7.06277,9.11585 0,-9.11585"
     inkscape:connector-curvature="0" />
</svg>
